# Blender 4.0.1
# www.blender.org
mtllib tv.mtl
o TV_01_Cube
v 7.490132 0.232524 -0.707454
v 7.490132 0.232523 -10.020737
v -7.490132 0.232524 -0.707454
v -7.490132 0.232523 -10.020737
v 7.490132 -0.232524 -0.707454
v 7.490132 -0.232525 -10.020737
v -7.490132 -0.232524 -0.707454
v -7.490132 -0.232525 -10.020737
v -6.987188 0.232524 -1.089689
v 6.987188 0.232524 -1.089689
v 6.987188 0.232523 -9.638502
v -6.987188 0.232523 -9.638502
v -6.987188 0.138503 -1.089689
v 6.987188 0.138502 -1.089689
v 6.987188 0.138501 -9.638502
v -6.987188 0.138502 -9.638502
v -0.620180 -0.232524 -1.982832
v -0.620180 -0.232524 -1.211696
v 0.620180 -0.232524 -1.211696
v 0.620180 -0.232524 -1.982832
v -0.620180 -0.661334 -1.658944
v -0.620180 -0.661334 -1.211696
v 0.620180 -0.661334 -1.211696
v 0.620180 -0.661334 -1.658944
v 0.620180 -0.300744 -1.982832
v -0.620180 -0.300744 -1.982832
v -0.620180 -0.300744 -1.211696
v 0.620180 -0.300744 -1.211696
v 0.620180 -0.661334 -0.185529
v -0.620180 -0.661334 -0.185529
v 0.620180 -0.300744 -0.185529
v -0.620180 -0.300744 -0.185529
v 1.977313 -1.055872 -0.185529
v -1.977313 -1.055872 -0.185529
v 1.977313 0.218991 -0.185529
v -1.977313 0.218991 -0.185529
v 1.977313 -1.055872 0.016147
v -1.977313 -1.055872 0.016147
v 1.977313 0.218991 0.016147
v -1.977313 0.218991 0.016147
v 0.620180 -0.481039 -1.896461
v 0.620180 -0.481039 -1.211696
v -0.620180 -0.481039 -1.896461
v -0.620180 -0.481039 -1.211696
v 0.620180 -0.481039 -0.185529
v -0.620180 -0.481039 -0.185529
v 2.372346 -0.418441 -0.185529
v -2.372346 -0.418441 -0.185529
v 2.372346 -0.418441 0.016147
v -2.372346 -0.418441 0.016147
v 7.082048 0.090413 -0.965281
v 7.243176 0.090413 -0.965281
v 7.243176 0.090413 -0.831978
v 7.082048 0.090413 -0.831978
v 7.082048 0.278626 -0.965281
v 7.243176 0.278626 -0.965281
v 7.082048 0.278626 -0.831978
v 7.243176 0.278626 -0.831978
v 6.827712 0.090413 -0.965281
v 6.988839 0.090413 -0.965281
v 6.988839 0.090413 -0.831978
v 6.827712 0.090413 -0.831978
v 6.827712 0.278626 -0.965281
v 6.988839 0.278626 -0.965281
v 6.827712 0.278626 -0.831978
v 6.988839 0.278626 -0.831978
v 6.576860 0.090413 -0.965281
v 6.737988 0.090413 -0.965281
v 6.737988 0.090413 -0.831978
v 6.576860 0.090413 -0.831978
v 6.576861 0.278626 -0.965281
v 6.737988 0.278626 -0.965281
v 6.576861 0.278626 -0.831978
v 6.737988 0.278626 -0.831978
v 6.330489 0.090413 -0.965281
v 6.491616 0.090413 -0.965281
v 6.491616 0.090413 -0.831978
v 6.330489 0.090413 -0.831978
v 6.330489 0.278626 -0.965281
v 6.491616 0.278626 -0.965281
v 6.330489 0.278626 -0.831978
v 6.491616 0.278626 -0.831978
v 0.884629 0.239778 -0.854766
v -0.884629 0.239778 -0.854766
v -0.825228 0.239778 -0.942376
v 0.825228 0.239778 -0.942376
v -0.884629 0.145138 -0.854766
v 0.884629 0.145138 -0.854766
v -0.825228 0.145138 -0.942376
v 0.825228 0.145138 -0.942376
vt 1 1
vn -0.0000 1.0000 -0.0000
vn -1.0000 -0.0000 -0.0000
vn -0.0000 -1.0000 -0.0000
vn 1.0000 -0.0000 -0.0000
vn -0.0000 -0.0000 1.0000
vn -0.0000 -0.0000 -1.0000
vn -0.0000 -0.7965 -0.6046
vn 0.8500 0.5268 -0.0000
vn -0.8500 -0.5268 -0.0000
vn -0.8500 0.5268 -0.0000
vn 0.8500 -0.5268 -0.0000
vn -0.0000 -0.4320 -0.9019
vn -0.8277 -0.0000 -0.5612
vn 0.8277 -0.0000 -0.5612
s 0
usemtl 1A1A1A
f 3/1/1 12/1/1 4/1/1
f 4/1/2 7/1/2 3/1/2
f 8/1/3 20/1/3 17/1/3
f 6/1/4 1/1/4 5/1/4
f 7/1/5 1/1/5 3/1/5
f 4/1/6 6/1/6 8/1/6
f 12/1/5 15/1/5 11/1/5
f 1/1/1 11/1/1 10/1/1
f 4/1/1 11/1/1 2/1/1
f 1/1/1 9/1/1 3/1/1
f 15/1/1 13/1/1 14/1/1
f 10/1/6 13/1/6 9/1/6
f 9/1/4 16/1/4 12/1/4
f 11/1/2 14/1/2 10/1/2
f 41/1/7 21/1/7 43/1/7
f 7/1/3 17/1/3 18/1/3
f 5/1/3 20/1/3 6/1/3
f 5/1/3 18/1/3 19/1/3
f 21/1/3 23/1/3 22/1/3
f 44/1/2 21/1/2 22/1/2
f 42/1/4 24/1/4 41/1/4
f 28/1/4 45/1/4 42/1/4
f 18/1/5 28/1/5 19/1/5
f 19/1/4 25/1/4 20/1/4
f 17/1/2 27/1/2 18/1/2
f 20/1/6 26/1/6 17/1/6
f 46/1/6 34/1/6 48/1/6
f 23/1/3 30/1/3 22/1/3
f 27/1/1 31/1/1 28/1/1
f 22/1/2 46/1/2 44/1/2
f 36/1/1 39/1/1 35/1/1
f 29/1/6 34/1/6 30/1/6
f 32/1/6 35/1/6 31/1/6
f 45/1/6 35/1/6 47/1/6
f 50/1/5 37/1/5 49/1/5
f 35/1/8 49/1/8 47/1/8
f 34/1/9 50/1/9 48/1/9
f 33/1/3 38/1/3 34/1/3
f 48/1/10 40/1/10 36/1/10
f 47/1/11 37/1/11 33/1/11
f 40/1/5 49/1/5 39/1/5
f 45/1/6 33/1/6 29/1/6
f 44/1/2 32/1/2 27/1/2
f 46/1/6 36/1/6 32/1/6
f 42/1/4 29/1/4 23/1/4
f 28/1/4 41/1/4 25/1/4
f 27/1/2 43/1/2 44/1/2
f 25/1/12 43/1/12 26/1/12
f 3/1/1 9/1/1 12/1/1
f 4/1/2 8/1/2 7/1/2
f 8/1/3 6/1/3 20/1/3
f 6/1/4 2/1/4 1/1/4
f 7/1/5 5/1/5 1/1/5
f 4/1/6 2/1/6 6/1/6
f 12/1/5 16/1/5 15/1/5
f 1/1/1 2/1/1 11/1/1
f 4/1/1 12/1/1 11/1/1
f 1/1/1 10/1/1 9/1/1
f 15/1/1 16/1/1 13/1/1
f 10/1/6 14/1/6 13/1/6
f 9/1/4 13/1/4 16/1/4
f 11/1/2 15/1/2 14/1/2
f 41/1/7 24/1/7 21/1/7
f 7/1/3 8/1/3 17/1/3
f 5/1/3 19/1/3 20/1/3
f 5/1/3 7/1/3 18/1/3
f 21/1/3 24/1/3 23/1/3
f 44/1/2 43/1/2 21/1/2
f 42/1/4 23/1/4 24/1/4
f 28/1/4 31/1/4 45/1/4
f 18/1/5 27/1/5 28/1/5
f 19/1/4 28/1/4 25/1/4
f 17/1/2 26/1/2 27/1/2
f 20/1/6 25/1/6 26/1/6
f 46/1/6 30/1/6 34/1/6
f 23/1/3 29/1/3 30/1/3
f 27/1/1 32/1/1 31/1/1
f 22/1/2 30/1/2 46/1/2
f 36/1/1 40/1/1 39/1/1
f 29/1/6 33/1/6 34/1/6
f 32/1/6 36/1/6 35/1/6
f 45/1/6 31/1/6 35/1/6
f 50/1/5 38/1/5 37/1/5
f 35/1/8 39/1/8 49/1/8
f 34/1/9 38/1/9 50/1/9
f 33/1/3 37/1/3 38/1/3
f 48/1/10 50/1/10 40/1/10
f 47/1/11 49/1/11 37/1/11
f 40/1/5 50/1/5 49/1/5
f 45/1/6 47/1/6 33/1/6
f 44/1/2 46/1/2 32/1/2
f 46/1/6 48/1/6 36/1/6
f 42/1/4 45/1/4 29/1/4
f 28/1/4 42/1/4 41/1/4
f 27/1/2 26/1/2 43/1/2
f 25/1/12 41/1/12 43/1/12
usemtl 455A64
f 53/1/3 51/1/3 52/1/3
f 55/1/1 58/1/1 56/1/1
f 52/1/4 58/1/4 53/1/4
f 51/1/6 56/1/6 52/1/6
f 54/1/2 55/1/2 51/1/2
f 53/1/5 57/1/5 54/1/5
f 61/1/3 59/1/3 60/1/3
f 63/1/1 66/1/1 64/1/1
f 60/1/4 66/1/4 61/1/4
f 59/1/6 64/1/6 60/1/6
f 62/1/2 63/1/2 59/1/2
f 61/1/5 65/1/5 62/1/5
f 69/1/3 67/1/3 68/1/3
f 71/1/1 74/1/1 72/1/1
f 68/1/4 74/1/4 69/1/4
f 68/1/6 71/1/6 72/1/6
f 70/1/2 71/1/2 67/1/2
f 69/1/5 73/1/5 70/1/5
f 77/1/3 75/1/3 76/1/3
f 79/1/1 82/1/1 80/1/1
f 76/1/4 82/1/4 77/1/4
f 75/1/6 80/1/6 76/1/6
f 78/1/2 79/1/2 75/1/2
f 77/1/5 81/1/5 78/1/5
f 83/1/1 85/1/1 84/1/1
f 89/1/3 88/1/3 87/1/3
f 89/1/13 84/1/13 85/1/13
f 87/1/5 83/1/5 84/1/5
f 88/1/14 86/1/14 83/1/14
f 90/1/6 85/1/6 86/1/6
f 53/1/3 54/1/3 51/1/3
f 55/1/1 57/1/1 58/1/1
f 52/1/4 56/1/4 58/1/4
f 51/1/6 55/1/6 56/1/6
f 54/1/2 57/1/2 55/1/2
f 53/1/5 58/1/5 57/1/5
f 61/1/3 62/1/3 59/1/3
f 63/1/1 65/1/1 66/1/1
f 60/1/4 64/1/4 66/1/4
f 59/1/6 63/1/6 64/1/6
f 62/1/2 65/1/2 63/1/2
f 61/1/5 66/1/5 65/1/5
f 69/1/3 70/1/3 67/1/3
f 71/1/1 73/1/1 74/1/1
f 68/1/4 72/1/4 74/1/4
f 68/1/6 67/1/6 71/1/6
f 70/1/2 73/1/2 71/1/2
f 69/1/5 74/1/5 73/1/5
f 77/1/3 78/1/3 75/1/3
f 79/1/1 81/1/1 82/1/1
f 76/1/4 80/1/4 82/1/4
f 75/1/6 79/1/6 80/1/6
f 78/1/2 81/1/2 79/1/2
f 77/1/5 82/1/5 81/1/5
f 83/1/1 86/1/1 85/1/1
f 89/1/3 90/1/3 88/1/3
f 89/1/13 87/1/13 84/1/13
f 87/1/5 88/1/5 83/1/5
f 88/1/14 90/1/14 86/1/14
f 90/1/6 89/1/6 85/1/6
