# Blender 4.0.1
# www.blender.org
mtllib tvstand.mtl
o Shelf_Small2
v -0.519810 -0.275193 0.021108
v -0.485569 -0.275193 0.021108
v -0.519811 0.275193 0.021108
v -0.485569 0.275193 0.021108
v -0.519811 -0.275193 -0.368709
v -0.485570 -0.275193 -0.368709
v -0.519811 0.275193 -0.368709
v -0.485570 0.275193 -0.368709
v -0.219944 0.238857 -0.240876
v -0.240606 0.238857 -0.240876
v -0.219943 -0.238857 -0.240876
v -0.240605 -0.238857 -0.240876
v -0.219943 0.238857 -0.017820
v -0.240605 0.238857 -0.017820
v -0.219943 -0.238858 -0.017820
v -0.240605 -0.238858 -0.017820
v -0.504659 -0.248284 -0.328153
v -0.504659 -0.248284 -0.362394
v -0.504659 0.248284 -0.328153
v -0.504659 0.248284 -0.362394
v -0.504659 0.248284 0.005783
v -0.504659 0.248284 -0.028458
v -0.504659 -0.248284 0.005783
v -0.504659 -0.248284 -0.028458
v -0.504659 -0.248284 -0.266477
v -0.504659 -0.248284 -0.232236
v -0.504659 0.248284 -0.266477
v -0.504659 0.248284 -0.232236
v 0.519811 -0.275193 0.021107
v 0.485569 -0.275193 0.021107
v 0.519810 0.275193 0.021108
v 0.485569 0.275193 0.021108
v 0.519811 -0.275193 -0.368709
v 0.485570 -0.275193 -0.368709
v 0.519811 0.275193 -0.368709
v 0.485570 0.275193 -0.368709
v 0.219943 0.238857 -0.240876
v 0.240605 0.238857 -0.240876
v 0.219943 -0.238857 -0.240876
v 0.240605 -0.238857 -0.240876
v 0.219943 0.238857 -0.017820
v 0.240605 0.238857 -0.017820
v 0.219943 -0.238857 -0.017820
v 0.240605 -0.238857 -0.017820
v 0.504659 -0.248284 -0.328153
v 0.504659 -0.248284 -0.362395
v 0.504659 0.248284 -0.328153
v 0.504659 0.248284 -0.362394
v 0.504659 0.248284 0.005783
v 0.504659 0.248284 -0.028458
v 0.504659 -0.248284 0.005783
v 0.504659 -0.248284 -0.028458
v 0.504659 -0.248284 -0.266477
v 0.504659 -0.248284 -0.232236
v 0.504659 0.248284 -0.266477
v 0.504659 0.248284 -0.232236
v -0.000000 0.248284 -0.328153
v -0.000000 0.248284 -0.362394
v -0.000000 -0.248284 -0.328153
v -0.000000 -0.248284 -0.362395
vt 1 1
vn -0.0000 -0.0000 1.0000
vn -0.0000 1.0000 -0.0000
vn -0.0000 -0.0000 -1.0000
vn -0.0000 -1.0000 -0.0000
vn -1.0000 -0.0000 -0.0000
vn 1.0000 -0.0000 -0.0000
s 1
usemtl White
f 3/1/1 1/1/1 2/1/1
f 3/1/2 4/1/2 8/1/2
f 5/1/3 7/1/3 8/1/3
f 1/1/4 5/1/4 6/1/4
f 1/1/5 3/1/5 7/1/5
f 6/1/6 8/1/6 4/1/6
f 16/1/5 14/1/5 10/1/5
f 14/1/2 13/1/2 9/1/2
f 14/1/1 16/1/1 15/1/1
f 16/1/4 12/1/4 11/1/4
f 11/1/6 9/1/6 13/1/6
f 12/1/3 10/1/3 9/1/3
f 19/1/2 57/1/2 58/1/2
f 17/1/5 19/1/5 20/1/5
f 59/1/1 57/1/1 19/1/1
f 22/1/3 50/1/3 52/1/3
f 21/1/5 22/1/5 24/1/5
f 49/1/1 21/1/1 23/1/1
f 28/1/5 27/1/5 25/1/5
f 25/1/4 53/1/4 54/1/4
f 20/1/3 58/1/3 60/1/3
f 59/1/4 17/1/4 18/1/4
f 27/1/3 55/1/3 53/1/3
f 27/1/2 28/1/2 56/1/2
f 52/1/4 51/1/4 23/1/4
f 21/1/2 49/1/2 50/1/2
f 30/1/1 29/1/1 31/1/1
f 31/1/2 35/1/2 36/1/2
f 36/1/3 35/1/3 33/1/3
f 34/1/4 33/1/4 29/1/4
f 35/1/6 31/1/6 29/1/6
f 32/1/5 36/1/5 34/1/5
f 38/1/6 42/1/6 44/1/6
f 41/1/2 42/1/2 38/1/2
f 43/1/1 44/1/1 42/1/1
f 39/1/4 40/1/4 44/1/4
f 41/1/5 37/1/5 39/1/5
f 37/1/3 38/1/3 40/1/3
f 58/1/2 57/1/2 47/1/2
f 48/1/6 47/1/6 45/1/6
f 47/1/1 57/1/1 59/1/1
f 52/1/6 50/1/6 49/1/6
f 53/1/6 55/1/6 56/1/6
f 58/1/3 48/1/3 46/1/3
f 46/1/4 45/1/4 59/1/4
f 54/1/1 56/1/1 28/1/1
f 3/1/1 2/1/1 4/1/1
f 3/1/2 8/1/2 7/1/2
f 5/1/3 8/1/3 6/1/3
f 1/1/4 6/1/4 2/1/4
f 1/1/5 7/1/5 5/1/5
f 6/1/6 4/1/6 2/1/6
f 16/1/5 10/1/5 12/1/5
f 14/1/2 9/1/2 10/1/2
f 14/1/1 15/1/1 13/1/1
f 16/1/4 11/1/4 15/1/4
f 11/1/6 13/1/6 15/1/6
f 12/1/3 9/1/3 11/1/3
f 19/1/2 58/1/2 20/1/2
f 17/1/5 20/1/5 18/1/5
f 59/1/1 19/1/1 17/1/1
f 22/1/3 52/1/3 24/1/3
f 21/1/5 24/1/5 23/1/5
f 49/1/1 23/1/1 51/1/1
f 28/1/5 25/1/5 26/1/5
f 25/1/4 54/1/4 26/1/4
f 20/1/3 60/1/3 18/1/3
f 59/1/4 18/1/4 60/1/4
f 27/1/3 53/1/3 25/1/3
f 27/1/2 56/1/2 55/1/2
f 52/1/4 23/1/4 24/1/4
f 21/1/2 50/1/2 22/1/2
f 30/1/1 31/1/1 32/1/1
f 31/1/2 36/1/2 32/1/2
f 36/1/3 33/1/3 34/1/3
f 34/1/4 29/1/4 30/1/4
f 35/1/6 29/1/6 33/1/6
f 32/1/5 34/1/5 30/1/5
f 38/1/6 44/1/6 40/1/6
f 41/1/2 38/1/2 37/1/2
f 43/1/1 42/1/1 41/1/1
f 39/1/4 44/1/4 43/1/4
f 41/1/5 39/1/5 43/1/5
f 37/1/3 40/1/3 39/1/3
f 58/1/2 47/1/2 48/1/2
f 48/1/6 45/1/6 46/1/6
f 47/1/1 59/1/1 45/1/1
f 52/1/6 49/1/6 51/1/6
f 53/1/6 56/1/6 54/1/6
f 58/1/3 46/1/3 60/1/3
f 46/1/4 59/1/4 60/1/4
f 54/1/1 28/1/1 26/1/1
